<mxfile host="app.diagrams.net" agent="Mozilla/5.0 (Windows NT 10.0; Win64; x64) AppleWebKit/537.36 (KHTML, like Gecko) Chrome/128.0.0.0 Safari/537.36" version="24.7.12">
  <diagram name="Page-1" id="5f0bae14-7c28-e335-631c-24af17079c00">
    <mxGraphModel dx="2954" dy="1132" grid="1" gridSize="10" guides="1" tooltips="1" connect="1" arrows="1" fold="1" page="1" pageScale="1" pageWidth="1100" pageHeight="850" background="none" math="0" shadow="0">
      <root>
        <mxCell id="0" />
        <mxCell id="1" parent="0" />
        <mxCell id="gY4HQTh1pNE1RITPi49o-1" value="" style="rounded=1;whiteSpace=wrap;html=1;strokeColor=default;gradientColor=none;fillColor=none;" vertex="1" parent="1">
          <mxGeometry x="310" y="30" width="460" height="630" as="geometry" />
        </mxCell>
        <mxCell id="gY4HQTh1pNE1RITPi49o-2" value="Backend aplikacji Harmony Home Net" style="text;strokeColor=none;fillColor=none;html=1;fontSize=24;fontStyle=1;verticalAlign=middle;align=center;fontFamily=Garamond;" vertex="1" parent="1">
          <mxGeometry x="361" y="50" width="350" height="20" as="geometry" />
        </mxCell>
        <mxCell id="gY4HQTh1pNE1RITPi49o-4" value="API" style="rounded=0;whiteSpace=wrap;html=1;" vertex="1" parent="1">
          <mxGeometry x="440" y="150" width="180" height="60" as="geometry" />
        </mxCell>
        <mxCell id="gY4HQTh1pNE1RITPi49o-5" value="Warstwa logiki biznesowej" style="rounded=0;whiteSpace=wrap;html=1;" vertex="1" parent="1">
          <mxGeometry x="440" y="330" width="180" height="60" as="geometry" />
        </mxCell>
        <mxCell id="gY4HQTh1pNE1RITPi49o-6" value="Warstwa dostÄ™pu do danych" style="rounded=0;whiteSpace=wrap;html=1;fontFamily=Helvetica;" vertex="1" parent="1">
          <mxGeometry x="440" y="500" width="180" height="60" as="geometry" />
        </mxCell>
        <mxCell id="gY4HQTh1pNE1RITPi49o-7" value="" style="endArrow=classic;startArrow=classic;html=1;rounded=0;entryX=0.5;entryY=1;entryDx=0;entryDy=0;" edge="1" parent="1" source="gY4HQTh1pNE1RITPi49o-6" target="gY4HQTh1pNE1RITPi49o-5">
          <mxGeometry width="50" height="50" relative="1" as="geometry">
            <mxPoint x="520" y="360" as="sourcePoint" />
            <mxPoint x="520" y="320" as="targetPoint" />
          </mxGeometry>
        </mxCell>
        <mxCell id="gY4HQTh1pNE1RITPi49o-8" value="" style="endArrow=classic;startArrow=classic;html=1;rounded=0;entryX=0.5;entryY=1;entryDx=0;entryDy=0;exitX=0.5;exitY=0;exitDx=0;exitDy=0;" edge="1" parent="1" source="gY4HQTh1pNE1RITPi49o-5" target="gY4HQTh1pNE1RITPi49o-4">
          <mxGeometry width="50" height="50" relative="1" as="geometry">
            <mxPoint x="520" y="360" as="sourcePoint" />
            <mxPoint x="570" y="310" as="targetPoint" />
          </mxGeometry>
        </mxCell>
        <mxCell id="gY4HQTh1pNE1RITPi49o-9" value="" style="rounded=1;whiteSpace=wrap;html=1;strokeColor=default;gradientColor=none;fillColor=none;" vertex="1" parent="1">
          <mxGeometry x="860" y="60" width="460" height="200" as="geometry" />
        </mxCell>
        <mxCell id="gY4HQTh1pNE1RITPi49o-10" value="Frontend aplikacji Harmony Home Net" style="text;strokeColor=none;fillColor=none;html=1;fontSize=24;fontStyle=1;verticalAlign=middle;align=center;fontFamily=Garamond;" vertex="1" parent="1">
          <mxGeometry x="1040" y="70" width="100" height="40" as="geometry" />
        </mxCell>
        <mxCell id="gY4HQTh1pNE1RITPi49o-11" value="Warstwa prezentacji" style="rounded=0;whiteSpace=wrap;html=1;" vertex="1" parent="1">
          <mxGeometry x="1000" y="150" width="180" height="60" as="geometry" />
        </mxCell>
        <mxCell id="gY4HQTh1pNE1RITPi49o-12" value="" style="endArrow=classic;startArrow=classic;html=1;rounded=0;entryX=0;entryY=0.5;entryDx=0;entryDy=0;exitX=1;exitY=0.5;exitDx=0;exitDy=0;" edge="1" parent="1" source="gY4HQTh1pNE1RITPi49o-4" target="gY4HQTh1pNE1RITPi49o-11">
          <mxGeometry width="50" height="50" relative="1" as="geometry">
            <mxPoint x="520" y="360" as="sourcePoint" />
            <mxPoint x="570" y="310" as="targetPoint" />
          </mxGeometry>
        </mxCell>
        <mxCell id="gY4HQTh1pNE1RITPi49o-16" value="Kontener Docker - baza danych" style="text;strokeColor=none;fillColor=none;html=1;fontSize=24;fontStyle=1;verticalAlign=middle;align=center;fontFamily=Garamond;" vertex="1" parent="1">
          <mxGeometry x="1035" y="410" width="100" height="40" as="geometry" />
        </mxCell>
        <mxCell id="gY4HQTh1pNE1RITPi49o-17" value="" style="rounded=1;whiteSpace=wrap;html=1;fillColor=none;" vertex="1" parent="1">
          <mxGeometry x="892.5" y="410" width="395" height="200" as="geometry" />
        </mxCell>
        <mxCell id="gY4HQTh1pNE1RITPi49o-18" value="" style="shape=datastore;whiteSpace=wrap;html=1;" vertex="1" parent="1">
          <mxGeometry x="1060" y="490" width="60" height="60" as="geometry" />
        </mxCell>
        <mxCell id="gY4HQTh1pNE1RITPi49o-19" value="" style="image;aspect=fixed;html=1;points=[];align=center;fontSize=12;image=img/lib/azure2/databases/Azure_Database_PostgreSQL_Server.svg;" vertex="1" parent="1">
          <mxGeometry x="1095" y="520" width="30" height="40" as="geometry" />
        </mxCell>
        <mxCell id="gY4HQTh1pNE1RITPi49o-20" value="" style="endArrow=classic;startArrow=classic;html=1;rounded=0;exitX=1;exitY=0.5;exitDx=0;exitDy=0;" edge="1" parent="1" source="gY4HQTh1pNE1RITPi49o-6">
          <mxGeometry width="50" height="50" relative="1" as="geometry">
            <mxPoint x="520" y="360" as="sourcePoint" />
            <mxPoint x="1060" y="530" as="targetPoint" />
          </mxGeometry>
        </mxCell>
      </root>
    </mxGraphModel>
  </diagram>
</mxfile>
